<svg width="41" height="41" viewBox="0 0 41 41" fill="none" xmlns="http://www.w3.org/2000/svg">
<g clip-path="url(#clip0_335_221)">
<path d="M35.0548 38.5176L34.7992 37.6578C34.2971 35.964 31.9792 35.3821 30.1164 34.9141C28.0214 34.392 25.8607 33.8525 25.4056 32.1329L25.1991 31.3552L24.3992 31.2507C23.2566 31.1029 22.1493 30.6678 21.1921 29.9933L20.5 29.5053L19.8079 29.9944C17.0023 31.9685 12.9595 31.5491 10.6043 29.158L10.168 28.7147L9.55332 28.8167C5.30846 29.5109 1.28125 26.1594 1.28125 21.7012C1.28125 19.7868 2.04608 17.9792 3.43255 16.6091L3.87594 16.1727L3.77504 15.5581C2.79256 9.56886 8.57132 7.81346 8.81196 7.60854C8.99438 7.36831 10.2495 2.48242 15.6953 2.48242C17.1663 2.48242 18.588 2.93759 19.8056 3.79971L20.5 4.2889L21.1944 3.79859C22.412 2.93759 23.8337 2.48242 25.3047 2.48242C28.2982 2.48242 30.9258 4.29707 31.9956 7.10645L32.188 7.60854L32.6924 7.79977C35.9774 9.05668 37.7521 12.3712 37.225 15.5546L37.1241 16.1728L37.5651 16.6092C38.9539 17.9792 39.7188 19.7868 39.7188 21.7012C39.7188 24.7064 37.8208 27.4255 34.9961 28.4683L33.0208 29.1968L34.6512 30.5259C36.3451 31.9041 37.3164 33.9416 37.3164 36.1152V38.5176H35.0548Z" fill="#6EFFCC"/>
<path d="M21.1921 29.9933C22.1493 30.6678 23.2566 31.1029 24.3992 31.2507L25.1991 31.3552L25.4056 32.1329C25.8608 33.8526 28.0214 34.3921 30.1164 34.9141C31.9792 35.3821 34.2971 35.9639 34.7992 37.6578L35.0548 38.5176H37.3164V36.1152C37.3164 33.9416 36.3451 31.9041 34.6513 30.5258L33.0209 29.1967L34.9962 28.4683C37.8208 27.4255 39.7188 24.7064 39.7188 21.7012C39.7188 19.7868 38.9539 17.9792 37.5651 16.6091L37.124 16.1727L37.2249 15.5545C37.752 12.3711 35.9773 9.0566 32.6923 7.79969L32.1879 7.60846L31.9955 7.10637C30.9258 4.29707 28.2982 2.48242 25.3047 2.48242C23.8337 2.48242 22.412 2.93759 21.1944 3.79859L20.5 4.2889V29.5053L21.1921 29.9933Z" fill="#6EFFCC"/>
<path d="M41 21.7012C41 19.4642 40.012 17.334 38.4096 15.7539C39.0378 11.9642 36.8981 8.12088 33.1194 6.67828C31.8783 3.42438 28.812 1.28125 25.3047 1.28125C23.5874 1.28125 21.9123 1.82082 20.5 2.81787C19.0877 1.82082 17.4126 1.28125 15.6953 1.28125C12.188 1.28125 9.1217 3.42438 7.88065 6.67828C4.10697 8.11896 1.96127 11.9592 2.59037 15.7539C0.988004 17.334 0 19.4642 0 21.7012C0 26.8794 4.76449 30.8276 9.74807 30.0014C12.5375 32.8343 17.246 33.2706 20.5 30.975C21.6191 31.7644 22.9023 32.2677 24.2443 32.4425C24.8824 34.8448 27.5897 35.5216 29.8185 36.0788C32.4648 36.7416 33.7129 37.198 33.7129 38.5176V39.7188H38.5176V36.1152C38.5176 33.4876 37.3047 31.1369 35.4114 29.5944C38.6231 28.4096 41 25.3188 41 21.7012ZM32.5117 27.707H30.1094V30.1094C33.422 30.1094 36.1152 32.8038 36.1152 36.1152V37.3164H35.9557C35.2847 34.9692 32.6079 34.3006 30.4003 33.7492C27.754 33.0865 26.5059 32.6302 26.5059 31.3105V30.1094H25.3047C24.0057 30.1094 22.7509 29.6496 21.7012 28.8457V26.3922C22.8117 26.2069 23.8874 25.7673 24.8237 25.0642L25.7856 24.344L24.3428 22.4214L23.3833 23.1428C21.6848 24.4144 19.3152 24.4144 17.6167 23.1428L16.6572 22.4214L15.2144 24.344L16.1763 25.0642C17.1125 25.7673 18.1883 26.2068 19.2988 26.3922V28.8345C16.8195 30.7044 13.1119 30.3363 11.1018 27.9205L10.6232 27.3446L9.89589 27.5205C5.95597 28.4661 2.48242 25.4458 2.48242 21.7012C2.48242 19.9381 3.28008 18.263 4.67128 17.1076L4.6776 17.1024C5.53212 16.3931 6.47776 15.9471 7.48658 15.7786L7.0878 13.4091C6.34251 13.5338 5.6126 13.7773 4.91552 14.116C5.07239 11.6297 6.73121 9.50784 9.17111 8.77456L9.79043 8.58806L9.97573 7.96986C10.7475 5.40559 13.0443 3.68359 15.6953 3.68359C16.9943 3.68359 18.2491 4.1434 19.2988 4.94723V8.48828H21.7012V4.94723C22.7509 4.1434 24.0057 3.68359 25.3047 3.68359C27.2395 3.68359 28.978 4.60778 30.0805 6.10019C29.1129 6.09138 28.2042 6.24906 27.3058 6.56577L28.1082 8.82965C29.2296 8.43199 30.3229 8.3206 31.8291 8.77456C34.269 9.50784 35.9277 11.6297 36.0846 14.116C35.3876 13.7773 34.6577 13.5339 33.9124 13.4091L33.5136 15.7786C36.0808 16.2073 38.5176 18.5962 38.5176 21.7012C38.5176 25.0126 35.8243 27.707 32.5117 27.707Z" fill="#052586"/>
<path d="M21.7012 8.48828V4.94723C22.7509 4.1434 24.0057 3.68359 25.3047 3.68359C27.2395 3.68359 28.978 4.60778 30.0805 6.10019C29.1129 6.09138 28.2042 6.24906 27.3058 6.56577L28.1082 8.82965C29.2296 8.43199 30.3229 8.3206 31.8291 8.77456C34.269 9.50784 35.9277 11.6297 36.0846 14.116C35.3876 13.7773 34.6577 13.5339 33.9124 13.4091L33.5136 15.7786C36.0808 16.2073 38.5176 18.5962 38.5176 21.7012C38.5176 25.0126 35.8243 27.707 32.5117 27.707H30.1094V30.1094C33.422 30.1094 36.1152 32.8038 36.1152 36.1152V37.3164H35.9557C35.2847 34.9692 32.6079 34.3006 30.4003 33.7492C27.754 33.0865 26.5059 32.6302 26.5059 31.3105V30.1094H25.3047C24.0057 30.1094 22.7509 29.6496 21.7012 28.8457V26.3922C22.8117 26.2069 23.8874 25.7673 24.8237 25.0642L25.7856 24.344L24.3428 22.4214L23.3833 23.1428C22.534 23.7786 21.517 24.0965 20.5 24.0965V30.975C21.6191 31.7644 22.9023 32.2677 24.2443 32.4425C24.8824 34.8448 27.5897 35.5216 29.8185 36.0788C32.4648 36.7416 33.7129 37.198 33.7129 38.5176V39.7188H38.5176V36.1152C38.5176 33.4876 37.3047 31.1369 35.4114 29.5944C38.6231 28.4096 41 25.3188 41 21.7012C41 19.4642 40.012 17.334 38.4096 15.7539C39.0379 11.9642 36.8981 8.1208 33.1194 6.67828C31.8783 3.42438 28.812 1.28125 25.3047 1.28125C23.5874 1.28125 21.9123 1.82082 20.5 2.81787V8.48828H21.7012Z" fill="#052586"/>
<path d="M15.6953 15.6953C13.0466 15.6953 10.8906 17.8501 10.8906 20.5H13.293C13.293 19.1757 14.3698 18.0977 15.6953 18.0977C17.0208 18.0977 18.0977 19.1757 18.0977 20.5H20.5C20.5 17.8501 18.344 15.6953 15.6953 15.6953Z" fill="#052586"/>
<path d="M25.3047 15.6953C22.656 15.6953 20.5 17.8501 20.5 20.5H22.9023C22.9023 19.1757 23.9792 18.0977 25.3047 18.0977C26.6302 18.0977 27.707 19.1757 27.707 20.5H30.1094C30.1094 17.8501 27.9534 15.6953 25.3047 15.6953Z" fill="#052586"/>
<path d="M20.9809 11.3818L22.4214 13.3032C24.1199 12.0316 26.4894 12.0316 28.188 13.3032L29.6284 11.3818C28.3569 10.4269 26.8296 9.94952 25.3047 9.94952C23.7798 9.94952 22.2525 10.4269 20.9809 11.3818Z" fill="#052586"/>
<path d="M10.7309 11.3818L12.1714 13.3032C13.8699 12.0316 16.2394 12.0316 17.938 13.3032L19.3784 11.3818C18.1069 10.4269 16.5796 9.94952 15.0547 9.94952C13.5297 9.94952 12.0025 10.4269 10.7309 11.3818Z" fill="#052586"/>
</g>
<defs>
<clipPath id="clip0_335_221">
<rect width="41" height="41" fill="white"/>
</clipPath>
</defs>
</svg>
